<svg width="20" height="20" viewBox="0 0 20 20" fill="none" xmlns="http://www.w3.org/2000/svg">
<rect x="0.5" y="0.5" width="19" height="19" rx="9.5" fill="white"/>
<rect x="0.5" y="0.5" width="19" height="19" rx="9.5" stroke="#C5C5C5"/>
<path d="M9.53552 15.5554C9.28411 15.5554 9.04842 15.5025 8.82845 15.3967C8.60847 15.2909 8.42216 15.141 8.26952 14.947L5.3335 11.283L5.58939 11.0184C5.76896 10.8332 5.98445 10.723 6.23585 10.6877C6.48726 10.6524 6.7207 10.7009 6.93619 10.8332L7.93282 11.4285V7.08984C7.93282 6.93993 7.98445 6.81427 8.0877 6.71285C8.19096 6.61144 8.31891 6.56074 8.47154 6.56074C8.62418 6.56074 8.75437 6.61144 8.86212 6.71285C8.96986 6.81427 9.02373 6.93993 9.02373 7.08984V9.73534H13.0507C13.4996 9.73534 13.8812 9.88966 14.1954 10.1983C14.5097 10.5069 14.6668 10.8817 14.6668 11.3226V13.439C14.6668 14.0211 14.4558 14.5193 14.0338 14.9338C13.6118 15.3482 13.1045 15.5554 12.5119 15.5554H9.53552ZM6.14158 8.41259C6.02485 8.21859 5.93507 8.00915 5.87222 7.78428C5.80937 7.55942 5.77794 7.32793 5.77794 7.08984C5.77794 6.35792 6.04057 5.73402 6.56582 5.21815C7.09107 4.70227 7.72631 4.44434 8.47154 4.44434C9.21677 4.44434 9.85202 4.70227 10.3773 5.21815C10.9025 5.73402 11.1651 6.35792 11.1651 7.08984C11.1651 7.32793 11.1337 7.55942 11.0709 7.78428C11.008 8.00915 10.9182 8.21859 10.8015 8.41259L9.87222 7.88349C9.94405 7.76003 9.99792 7.63437 10.0338 7.50651C10.0697 7.37864 10.0877 7.23975 10.0877 7.08984C10.0877 6.64892 9.93058 6.27414 9.61632 5.9655C9.30207 5.65686 8.92048 5.50254 8.47154 5.50254C8.02261 5.50254 7.64102 5.65686 7.32676 5.9655C7.01251 6.27414 6.85538 6.64892 6.85538 7.08984C6.85538 7.23975 6.87334 7.37864 6.90925 7.50651C6.94517 7.63437 6.99904 7.76003 7.07087 7.88349L6.14158 8.41259Z" fill="#C5C5C5"/>
</svg>
