<svg width="41" height="41" viewBox="0 0 41 41" fill="none" xmlns="http://www.w3.org/2000/svg">
<path d="M15.6651 29.7482L29.6642 20.7488L15.6651 11.7493V29.7482ZM20.6648 40.7475C17.8983 40.7475 15.2984 40.2225 12.8653 39.1726C10.4321 38.1227 8.31554 36.6978 6.51565 34.8979C4.71576 33.098 3.29085 30.9814 2.24092 28.5483C1.19098 26.1151 0.666016 23.5152 0.666016 20.7488C0.666016 17.9823 1.19098 15.3824 2.24092 12.9492C3.29085 10.5161 4.71576 8.39952 6.51565 6.59963C8.31554 4.79975 10.4321 3.37484 12.8653 2.3249C15.2984 1.27497 17.8983 0.75 20.6648 0.75C23.4313 0.75 26.0311 1.27497 28.4643 2.3249C30.8975 3.37484 33.014 4.79975 34.8139 6.59963C36.6138 8.39952 38.0387 10.5161 39.0886 12.9492C40.1385 15.3824 40.6635 17.9823 40.6635 20.7488C40.6635 23.5152 40.1385 26.1151 39.0886 28.5483C38.0387 30.9814 36.6138 33.098 34.8139 34.8979C33.014 36.6978 30.8975 38.1227 28.4643 39.1726C26.0311 40.2225 23.4313 40.7475 20.6648 40.7475ZM20.6648 36.7477C25.1312 36.7477 28.9142 35.1978 32.0141 32.098C35.1139 28.9982 36.6638 25.2151 36.6638 20.7488C36.6638 16.2824 35.1139 12.4993 32.0141 9.39946C28.9142 6.29965 25.1312 4.74975 20.6648 4.74975C16.1984 4.74975 12.4153 6.29965 9.31548 9.39946C6.21567 12.4993 4.66577 16.2824 4.66577 20.7488C4.66577 25.2151 6.21567 28.9982 9.31548 32.098C12.4153 35.1978 16.1984 36.7477 20.6648 36.7477Z" fill="#CDDFF2"/>
</svg>
