<svg width="20" height="20" viewBox="0 0 20 20" fill="none" xmlns="http://www.w3.org/2000/svg">
<rect x="0.5" y="0.5" width="19" height="19" rx="9.5" fill="#EFE4FF"/>
<rect x="0.5" y="0.5" width="19" height="19" rx="9.5" stroke="#6A39B0"/>
<path d="M9.53527 15.5554C9.28387 15.5554 9.04818 15.5025 8.8282 15.3967C8.60822 15.2909 8.42192 15.141 8.26928 14.947L5.33325 11.283L5.58914 11.0184C5.76872 10.8332 5.98421 10.723 6.23561 10.6877C6.48701 10.6524 6.72046 10.7009 6.93595 10.8332L7.93258 11.4285V7.08984C7.93258 6.93993 7.98421 6.81427 8.08746 6.71285C8.19072 6.61144 8.31866 6.56074 8.4713 6.56074C8.62394 6.56074 8.75413 6.61144 8.86187 6.71285C8.96962 6.81427 9.02349 6.93993 9.02349 7.08984V9.73534H13.0504C13.4994 9.73534 13.881 9.88966 14.1952 10.1983C14.5095 10.5069 14.6666 10.8817 14.6666 11.3226V13.439C14.6666 14.0211 14.4556 14.5193 14.0336 14.9338C13.6116 15.3482 13.1043 15.5554 12.5117 15.5554H9.53527ZM6.14133 8.41259C6.02461 8.21859 5.93482 8.00915 5.87197 7.78428C5.80912 7.55942 5.7777 7.32793 5.7777 7.08984C5.7777 6.35792 6.04032 5.73402 6.56558 5.21815C7.09083 4.70227 7.72607 4.44434 8.4713 4.44434C9.21653 4.44434 9.85177 4.70227 10.377 5.21815C10.9023 5.73402 11.1649 6.35792 11.1649 7.08984C11.1649 7.32793 11.1335 7.55942 11.0706 7.78428C11.0078 8.00915 10.918 8.21859 10.8013 8.41259L9.87197 7.88349C9.9438 7.76003 9.99767 7.63437 10.0336 7.50651C10.0695 7.37864 10.0875 7.23975 10.0875 7.08984C10.0875 6.64892 9.93033 6.27414 9.61608 5.9655C9.30183 5.65686 8.92023 5.50254 8.4713 5.50254C8.02237 5.50254 7.64077 5.65686 7.32652 5.9655C7.01226 6.27414 6.85514 6.64892 6.85514 7.08984C6.85514 7.23975 6.87309 7.37864 6.90901 7.50651C6.94492 7.63437 6.9988 7.76003 7.07063 7.88349L6.14133 8.41259Z" fill="#6A39B0"/>
</svg>
