<svg width="20" height="21" viewBox="0 0 20 21" fill="none" xmlns="http://www.w3.org/2000/svg">
<rect x="0.5" y="1" width="19" height="19" rx="9.5" fill="white"/>
<rect x="0.5" y="1" width="19" height="19" rx="9.5" stroke="#C5C5C5"/>
<path d="M9.53503 16.0554C9.28363 16.0554 9.04794 16.0025 8.82796 15.8967C8.60798 15.7909 8.42167 15.641 8.26903 15.447L5.33301 11.783L5.5889 11.5184C5.76847 11.3332 5.98396 11.223 6.23536 11.1877C6.48677 11.1524 6.72021 11.2009 6.9357 11.3332L7.93233 11.9285V7.58984C7.93233 7.43993 7.98396 7.31427 8.08722 7.21285C8.19047 7.11144 8.31842 7.06074 8.47106 7.06074C8.62369 7.06074 8.75388 7.11144 8.86163 7.21285C8.96937 7.31427 9.02324 7.43993 9.02324 7.58984V10.2353H13.0502C13.4991 10.2353 13.8807 10.3897 14.195 10.6983C14.5092 11.0069 14.6663 11.3817 14.6663 11.8226V13.939C14.6663 14.5211 14.4553 15.0193 14.0333 15.4338C13.6113 15.8482 13.1041 16.0554 12.5115 16.0554H9.53503ZM6.14109 8.91259C6.02437 8.71859 5.93458 8.50915 5.87173 8.28428C5.80888 8.05942 5.77745 7.82793 5.77745 7.58984C5.77745 6.85792 6.04008 6.23402 6.56533 5.71815C7.09058 5.20227 7.72583 4.94434 8.47106 4.94434C9.21629 4.94434 9.85153 5.20227 10.3768 5.71815C10.902 6.23402 11.1647 6.85792 11.1647 7.58984C11.1647 7.82793 11.1332 8.05942 11.0704 8.28428C11.0075 8.50915 10.9177 8.71859 10.801 8.91259L9.87173 8.38349C9.94356 8.26003 9.99743 8.13437 10.0333 8.00651C10.0693 7.87864 10.0872 7.73975 10.0872 7.58984C10.0872 7.14892 9.93009 6.77414 9.61584 6.4655C9.30158 6.15686 8.91999 6.00254 8.47106 6.00254C8.02212 6.00254 7.64053 6.15686 7.32627 6.4655C7.01202 6.77414 6.85489 7.14892 6.85489 7.58984C6.85489 7.73975 6.87285 7.87864 6.90877 8.00651C6.94468 8.13437 6.99855 8.26003 7.07038 8.38349L6.14109 8.91259Z" fill="#C5C5C5"/>
</svg>
