<svg width="28" height="28" viewBox="0 0 28 28" fill="none" xmlns="http://www.w3.org/2000/svg">
<path d="M4.66683 23.3337C4.02516 23.3337 3.47586 23.1052 3.01891 22.6482C2.56197 22.1913 2.3335 21.642 2.3335 21.0003V7.00033C2.3335 6.35866 2.56197 5.80935 3.01891 5.35241C3.47586 4.89546 4.02516 4.66699 4.66683 4.66699H23.3335C23.9752 4.66699 24.5245 4.89546 24.9814 5.35241C25.4384 5.80935 25.6668 6.35866 25.6668 7.00033V21.0003C25.6668 21.642 25.4384 22.1913 24.9814 22.6482C24.5245 23.1052 23.9752 23.3337 23.3335 23.3337H4.66683ZM14.0002 15.167L4.66683 9.33366V21.0003H23.3335V9.33366L14.0002 15.167ZM14.0002 12.8337L23.3335 7.00033H4.66683L14.0002 12.8337ZM4.66683 9.33366V7.00033V21.0003V9.33366Z" fill="white"/>
</svg>
