<svg width="64" height="64" viewBox="0 0 64 64" fill="none" xmlns="http://www.w3.org/2000/svg">
<path d="M24.9988 43.6643L43.6643 31.665L24.9988 19.6658V43.6643ZM31.665 58.33C27.9763 58.33 24.5099 57.63 21.2657 56.2301C18.0214 54.8302 15.1994 52.9303 12.7995 50.5305C10.3997 48.1306 8.49978 45.3086 7.09987 42.0644C5.69996 38.8201 5 35.3537 5 31.665C5 27.9763 5.69996 24.5099 7.09987 21.2657C8.49978 18.0214 10.3997 15.1994 12.7995 12.7995C15.1994 10.3997 18.0214 8.49978 21.2657 7.09987C24.5099 5.69996 27.9763 5 31.665 5C35.3537 5 38.8201 5.69996 42.0644 7.09987C45.3086 8.49978 48.1306 10.3997 50.5305 12.7995C52.9303 15.1994 54.8302 18.0214 56.2301 21.2657C57.63 24.5099 58.33 27.9763 58.33 31.665C58.33 35.3537 57.63 38.8201 56.2301 42.0644C54.8302 45.3086 52.9303 48.1306 50.5305 50.5305C48.1306 52.9303 45.3086 54.8302 42.0644 56.2301C38.8201 57.63 35.3537 58.33 31.665 58.33ZM31.665 52.997C37.6202 52.997 42.6643 50.9305 46.7974 46.7974C50.9305 42.6643 52.997 37.6202 52.997 31.665C52.997 25.7098 50.9305 20.6657 46.7974 16.5326C42.6643 12.3995 37.6202 10.333 31.665 10.333C25.7098 10.333 20.6657 12.3995 16.5326 16.5326C12.3995 20.6657 10.333 25.7098 10.333 31.665C10.333 37.6202 12.3995 42.6643 16.5326 46.7974C20.6657 50.9305 25.7098 52.997 31.665 52.997Z" fill="black"/>
</svg>
