<svg width="64" height="64" viewBox="0 0 64 64" fill="none" xmlns="http://www.w3.org/2000/svg">
<path d="M40.7999 44.5332L44.5332 40.7999L34.6666 30.9333V18.6666H29.3333V33.0666L40.7999 44.5332ZM31.9999 58.6666C28.311 58.6666 24.8444 57.9666 21.5999 56.5666C18.3555 55.1666 15.5333 53.2666 13.1333 50.8666C10.7333 48.4666 8.83325 45.6444 7.43325 42.3999C6.03325 39.1555 5.33325 35.6888 5.33325 31.9999C5.33325 28.311 6.03325 24.8444 7.43325 21.5999C8.83325 18.3555 10.7333 15.5333 13.1333 13.1333C15.5333 10.7333 18.3555 8.83325 21.5999 7.43325C24.8444 6.03325 28.311 5.33325 31.9999 5.33325C35.6888 5.33325 39.1555 6.03325 42.3999 7.43325C45.6444 8.83325 48.4666 10.7333 50.8666 13.1333C53.2666 15.5333 55.1666 18.3555 56.5666 21.5999C57.9666 24.8444 58.6666 28.311 58.6666 31.9999C58.6666 35.6888 57.9666 39.1555 56.5666 42.3999C55.1666 45.6444 53.2666 48.4666 50.8666 50.8666C48.4666 53.2666 45.6444 55.1666 42.3999 56.5666C39.1555 57.9666 35.6888 58.6666 31.9999 58.6666ZM31.9999 53.3332C37.911 53.3332 42.9444 51.2555 47.0999 47.0999C51.2555 42.9444 53.3332 37.911 53.3332 31.9999C53.3332 26.0888 51.2555 21.0555 47.0999 16.8999C42.9444 12.7444 37.911 10.6666 31.9999 10.6666C26.0888 10.6666 21.0555 12.7444 16.8999 16.8999C12.7444 21.0555 10.6666 26.0888 10.6666 31.9999C10.6666 37.911 12.7444 42.9444 16.8999 47.0999C21.0555 51.2555 26.0888 53.3332 31.9999 53.3332Z" fill="black"/>
</svg>
