<svg width="64" height="64" viewBox="0 0 64 64" fill="none" xmlns="http://www.w3.org/2000/svg">
<path fill-rule="evenodd" clip-rule="evenodd" d="M50.2776 12.7017C45.2961 7.73771 38.6707 5.00259 31.6114 5C17.0651 5 5.22655 16.7805 5.22146 31.2607C5.21896 35.8897 6.43495 40.408 8.7442 44.3899L5 58L18.9896 54.348C22.8438 56.4411 27.1839 57.5429 31.6 57.5441H31.6114C46.1551 57.5441 57.995 45.7625 58 31.2821C58.0025 24.2644 55.2605 17.667 50.2776 12.7029V12.7017ZM31.6114 53.109H31.6025C27.6672 53.1079 23.8067 52.0549 20.4384 50.0666L19.6375 49.5933L11.3356 51.7603L13.5512 43.7048L13.0298 42.8787C10.8345 39.4032 9.67419 35.3861 9.67669 31.2621C9.68178 19.2272 19.5211 9.43508 31.6203 9.43508C37.4787 9.43767 42.9856 11.7107 47.1269 15.8373C51.2685 19.9626 53.5473 25.4481 53.5448 31.2797C53.5396 43.3157 43.7005 53.1079 31.6114 53.1079V53.109ZM43.6422 36.7613C42.9829 36.4326 39.7413 34.8459 39.1363 34.6267C38.5315 34.4076 38.0925 34.2982 37.6534 34.9554C37.2143 35.6129 35.9503 37.0912 35.5656 37.5281C35.1809 37.9664 34.7962 38.0206 34.137 37.6918C33.4778 37.3631 31.3532 36.6706 28.8339 34.4353C26.874 32.695 25.5503 30.5468 25.1658 29.8893C24.7811 29.2321 25.1253 28.8769 25.4542 28.5507C25.7503 28.2562 26.1135 27.784 26.4437 27.4011C26.774 27.0182 26.8828 26.7438 27.1029 26.3068C27.3232 25.8685 27.2131 25.4859 27.0487 25.157C26.8841 24.8284 25.5656 21.5983 25.0151 20.285C24.4798 19.0056 23.9359 19.1794 23.5323 19.158C23.1474 19.139 22.7085 19.1353 22.2682 19.1353C21.8278 19.1353 21.1141 19.2989 20.5093 19.9564C19.9045 20.6136 18.2013 22.2016 18.2013 25.4303C18.2013 28.6591 20.5637 31.781 20.894 32.2192C21.2242 32.6574 25.544 39.2848 32.158 42.1283C33.7308 42.8045 34.9594 43.2087 35.9174 43.5109C37.4965 44.0108 38.9339 43.9404 40.0701 43.7715C41.3369 43.5827 43.9713 42.1836 44.5204 40.651C45.0694 39.1185 45.0694 37.8039 44.905 37.5305C44.7406 37.2574 44.3003 37.0923 43.641 36.7638L43.6422 36.7613Z" fill="#111B21"/>
</svg>
