<svg width="64" height="64" viewBox="0 0 64 64" fill="none" xmlns="http://www.w3.org/2000/svg">
<path d="M31.9999 43.9333C36.3999 40.3777 39.7221 36.9555 41.9666 33.6666C44.211 30.3777 45.3333 27.2888 45.3333 24.3999C45.3333 20.3999 44.0888 17.111 41.5999 14.5333C39.111 11.9555 35.911 10.6666 31.9999 10.6666C28.0888 10.6666 24.8888 11.9555 22.3999 14.5333C19.911 17.111 18.6666 20.3999 18.6666 24.3999C18.6666 27.2888 19.7888 30.3777 22.0333 33.6666C24.2777 36.9555 27.5999 40.3777 31.9999 43.9333ZM31.9999 50.6666C25.7333 46.0444 21.0555 41.5555 17.9666 37.1999C14.8777 32.8444 13.3333 28.5777 13.3333 24.3999C13.3333 18.8444 15.0666 14.2777 18.5333 10.6999C21.9999 7.12214 26.4888 5.33325 31.9999 5.33325C37.511 5.33325 41.9999 7.12214 45.4666 10.6999C48.9333 14.2777 50.6666 18.8444 50.6666 24.3999C50.6666 28.5777 49.1221 32.8444 46.0332 37.1999C42.9444 41.5555 38.2666 46.0444 31.9999 50.6666ZM31.9999 29.3333C33.4666 29.3333 34.7221 28.811 35.7666 27.7666C36.811 26.7221 37.3333 25.4666 37.3333 23.9999C37.3333 22.5333 36.811 21.2777 35.7666 20.2333C34.7221 19.1888 33.4666 18.6666 31.9999 18.6666C30.5333 18.6666 29.2777 19.1888 28.2333 20.2333C27.1888 21.2777 26.6666 22.5333 26.6666 23.9999C26.6666 25.4666 27.1888 26.7221 28.2333 27.7666C29.2777 28.811 30.5333 29.3333 31.9999 29.3333ZM13.3333 58.6666V53.3332H50.6666V58.6666H13.3333Z" fill="black"/>
</svg>
