<svg width="64" height="64" viewBox="0 0 64 64" fill="none" xmlns="http://www.w3.org/2000/svg">
<path d="M53.2 56C47.6444 56 42.1556 54.7889 36.7333 52.3667C31.3111 49.9444 26.3778 46.5111 21.9333 42.0667C17.4889 37.6222 14.0556 32.6889 11.6333 27.2667C9.21111 21.8444 8 16.3556 8 10.8C8 10 8.26667 9.33333 8.8 8.8C9.33333 8.26667 10 8 10.8 8H21.6C22.2222 8 22.7778 8.21111 23.2667 8.63333C23.7556 9.05556 24.0444 9.55556 24.1333 10.1333L25.8667 19.4667C25.9556 20.1778 25.9333 20.7778 25.8 21.2667C25.6667 21.7556 25.4222 22.1778 25.0667 22.5333L18.6 29.0667C19.4889 30.7111 20.5444 32.3 21.7667 33.8333C22.9889 35.3667 24.3333 36.8444 25.8 38.2667C27.1778 39.6444 28.6222 40.9222 30.1333 42.1C31.6444 43.2778 33.2444 44.3556 34.9333 45.3333L41.2 39.0667C41.6 38.6667 42.1222 38.3667 42.7667 38.1667C43.4111 37.9667 44.0444 37.9111 44.6667 38L53.8667 39.8667C54.4889 40.0444 55 40.3667 55.4 40.8333C55.8 41.3 56 41.8222 56 42.4V53.2C56 54 55.7333 54.6667 55.2 55.2C54.6667 55.7333 54 56 53.2 56ZM16.0667 24L20.4667 19.6L19.3333 13.3333H13.4C13.6222 15.1556 13.9333 16.9556 14.3333 18.7333C14.7333 20.5111 15.3111 22.2667 16.0667 24ZM39.9333 47.8667C41.6667 48.6222 43.4333 49.2222 45.2333 49.6667C47.0333 50.1111 48.8444 50.4 50.6667 50.5333V44.6667L44.4 43.4L39.9333 47.8667Z" fill="black"/>
</svg>
