<svg width="64" height="64" viewBox="0 0 64 64" fill="none" xmlns="http://www.w3.org/2000/svg">
<path d="M10.6666 53.3334C9.19992 53.3334 7.94436 52.8112 6.89992 51.7668C5.85547 50.7223 5.33325 49.4668 5.33325 48.0001V16.0001C5.33325 14.5334 5.85547 13.2779 6.89992 12.2334C7.94436 11.189 9.19992 10.6667 10.6666 10.6667H53.3332C54.7999 10.6667 56.0555 11.189 57.0999 12.2334C58.1444 13.2779 58.6666 14.5334 58.6666 16.0001V48.0001C58.6666 49.4668 58.1444 50.7223 57.0999 51.7668C56.0555 52.8112 54.7999 53.3334 53.3332 53.3334H10.6666ZM31.9999 34.6667L10.6666 21.3334V48.0001H53.3332V21.3334L31.9999 34.6667ZM31.9999 29.3334L53.3332 16.0001H10.6666L31.9999 29.3334ZM10.6666 21.3334V16.0001V48.0001V21.3334Z" fill="black"/>
</svg>
