<svg width="28" height="28" viewBox="0 0 28 28" fill="none" xmlns="http://www.w3.org/2000/svg">
<path d="M14.0002 19.2205C15.9252 17.665 17.3786 16.1677 18.3606 14.7288C19.3425 13.29 19.8335 11.9386 19.8335 10.6747C19.8335 8.92467 19.2891 7.48579 18.2002 6.35801C17.1113 5.23023 15.7113 4.66634 14.0002 4.66634C12.2891 4.66634 10.8891 5.23023 9.80016 6.35801C8.71127 7.48579 8.16683 8.92467 8.16683 10.6747C8.16683 11.9386 8.6578 13.29 9.63975 14.7288C10.6217 16.1677 12.0752 17.665 14.0002 19.2205ZM14.0002 22.1663C11.2585 20.1441 9.21197 18.1802 7.86058 16.2747C6.50919 14.3691 5.8335 12.5025 5.8335 10.6747C5.8335 8.24412 6.59183 6.2462 8.1085 4.68092C9.62516 3.11565 11.5891 2.33301 14.0002 2.33301C16.4113 2.33301 18.3752 3.11565 19.8918 4.68092C21.4085 6.2462 22.1668 8.24412 22.1668 10.6747C22.1668 12.5025 21.4911 14.3691 20.1397 16.2747C18.7884 18.1802 16.7418 20.1441 14.0002 22.1663ZM14.0002 12.833C14.6418 12.833 15.1911 12.6045 15.6481 12.1476C16.105 11.6906 16.3335 11.1413 16.3335 10.4997C16.3335 9.85801 16.105 9.3087 15.6481 8.85176C15.1911 8.39481 14.6418 8.16634 14.0002 8.16634C13.3585 8.16634 12.8092 8.39481 12.3522 8.85176C11.8953 9.3087 11.6668 9.85801 11.6668 10.4997C11.6668 11.1413 11.8953 11.6906 12.3522 12.1476C12.8092 12.6045 13.3585 12.833 14.0002 12.833ZM5.8335 25.6663V23.333H22.1668V25.6663H5.8335Z" fill="white"/>
</svg>
