<svg width="28" height="28" viewBox="0 0 28 28" fill="none" xmlns="http://www.w3.org/2000/svg">
<path d="M17.8502 19.483L19.4835 17.8497L15.1668 13.533V8.16634H12.8335V14.4663L17.8502 19.483ZM14.0002 25.6663C12.3863 25.6663 10.8696 25.3601 9.45016 24.7476C8.03072 24.1351 6.796 23.3038 5.746 22.2538C4.696 21.2038 3.86475 19.9691 3.25225 18.5497C2.63975 17.1302 2.3335 15.6136 2.3335 13.9997C2.3335 12.3858 2.63975 10.8691 3.25225 9.44967C3.86475 8.03023 4.696 6.79551 5.746 5.74551C6.796 4.69551 8.03072 3.86426 9.45016 3.25176C10.8696 2.63926 12.3863 2.33301 14.0002 2.33301C15.6141 2.33301 17.1307 2.63926 18.5502 3.25176C19.9696 3.86426 21.2043 4.69551 22.2543 5.74551C23.3043 6.79551 24.1356 8.03023 24.7481 9.44967C25.3606 10.8691 25.6668 12.3858 25.6668 13.9997C25.6668 15.6136 25.3606 17.1302 24.7481 18.5497C24.1356 19.9691 23.3043 21.2038 22.2543 22.2538C21.2043 23.3038 19.9696 24.1351 18.5502 24.7476C17.1307 25.3601 15.6141 25.6663 14.0002 25.6663ZM14.0002 23.333C16.5863 23.333 18.7884 22.424 20.6064 20.6059C22.4245 18.7879 23.3335 16.5858 23.3335 13.9997C23.3335 11.4136 22.4245 9.21148 20.6064 7.39342C18.7884 5.57537 16.5863 4.66634 14.0002 4.66634C11.4141 4.66634 9.21197 5.57537 7.39391 7.39342C5.57586 9.21148 4.66683 11.4136 4.66683 13.9997C4.66683 16.5858 5.57586 18.7879 7.39391 20.6059C9.21197 22.424 11.4141 23.333 14.0002 23.333Z" fill="white"/>
</svg>
