<svg width="128" height="128" viewBox="0 0 128 128" fill="none" xmlns="http://www.w3.org/2000/svg">
<path d="M38.5805 55.1846C34.5259 46.8157 35.0643 36.6472 39.6422 28.5983C46.2718 16.9277 61.101 11.4124 73.9951 12.1051C76.5325 12.2406 79.2996 12.7263 80.9561 14.6538C81.4718 15.2524 81.8972 16.0016 82.6314 16.3027C83.1428 16.4599 83.6821 16.5048 84.2125 16.4345C86.5994 16.3253 89.0765 16.6755 91.1057 17.9404C93.1349 19.2053 94.6219 21.4905 94.4563 23.8736C94.4074 24.5625 94.2342 25.2966 94.5278 25.9253C94.7725 26.4486 95.2808 26.7762 95.7099 27.179C96.8394 28.2745 97.2158 29.9837 97.0351 31.5536C96.4742 36.7451 94.9683 42.1136 92.2201 46.6237C90.5246 49.4179 88.4034 51.9303 85.933 54.0703C83.4935 56.171 80.4629 57.1611 78.3547 59.5743C76.1523 62.0929 76.4309 65.5112 74.2699 68.2331C71.9772 71.1282 68.6229 72.9955 65.0728 73.914C61.0972 74.9418 53.2968 75.322 49.7429 72.954C48.6662 72.235 47.8982 71.147 47.1716 70.074C43.9552 65.323 41.0841 60.347 38.5805 55.1846Z" fill="#00214E"/>
<path d="M106.722 101.698C81.5555 121.075 46.453 120.92 21.4587 101.321L39.7778 92.7338C40.6502 92.3237 41.4875 91.8427 42.2813 91.2957C42.5223 91.1301 42.7632 90.9569 42.9929 90.7762C44.9866 89.2507 46.6277 87.3129 47.8042 85.0952C48.6935 83.3913 49.2844 81.5475 49.551 79.644C49.7348 78.4088 49.8279 77.1619 49.8296 75.9131C49.8296 73.7597 49.7129 71.6063 49.6903 69.4491C49.6752 68.257 49.6627 67.0636 49.6526 65.8689L50.4056 66.2454L52.3632 67.2581L53.2705 67.4124L63.7665 69.1969L75.4823 71.1922L75.8362 83.2393L75.9529 87.1771L76.0093 89.0896V89.2138L80.5646 91.0661L106.722 101.698Z" fill="#845161"/>
<path d="M106.722 101.698C81.5555 121.075 46.453 120.92 21.4587 101.321L39.7778 92.7338C40.6502 92.3237 41.4875 91.8427 42.2813 91.2957C42.5223 91.13 42.7632 90.9568 42.9929 90.7761C51.8587 97.0858 63.9585 101.065 74.4244 96.3554C76.9166 95.226 79.2056 93.4039 80.5609 91.0622L106.722 101.698Z" fill="#FF2609"/>
<path d="M76.0018 89.0821C72.0677 89.3193 67.6705 88.3028 63.5782 85.9424C55.8945 81.5038 51.7872 73.7636 53.2629 67.4163L63.7589 69.2007L75.4747 71.196L75.8286 83.2431L76.0018 89.0821Z" fill="#69303A"/>
<circle cx="45.9481" cy="55.3238" r="6.4" fill="#845161"/>
<circle cx="47.9774" cy="55.3239" r="5.72988" fill="#69303A"/>
<path d="M48.064 49.2815L48.9374 60.6434L49.5058 68.0712C49.7167 70.8043 50.7821 72.442 52.5628 74.6293C55.727 78.5105 59.7579 81.5949 64.3313 83.6344C68.6983 85.5808 74.752 87.5196 79.4127 85.6297C84.175 83.7022 85.696 78.3526 87.296 73.9215C88.896 69.4904 90.3868 64.6076 90.3077 59.8189C90.2061 53.321 88.4856 49.6768 88.4856 49.6768C88.9022 47.167 89.3189 44.6647 89.7355 42.17C90.2061 39.3427 90.8122 36.3912 90.112 33.5488C89.3101 30.2886 86.848 28.8994 84.8226 26.4636C79.4917 33.3304 70.7275 37.2119 63.0738 41.146C59.1322 43.2053 48.064 49.2815 48.064 49.2815Z" fill="#845161"/>
<path d="M76.8452 51.1113C76.8226 51.2017 78.9308 57.0897 80.207 60.6436C80.4191 61.2485 80.3252 61.9186 79.9551 62.442C79.585 62.9653 78.9845 63.2772 78.3435 63.2789H76.9769" stroke="#00214E"/>
<path d="M71.7026 61.0049C71.2 61.3029 70.9893 61.9225 71.2062 62.4651C71.423 63.0076 72.0027 63.3114 72.5722 63.1809" stroke="#00214E"/>
<path d="M58.7932 46.7591C62.2785 46.0403 65.8628 45.9384 69.3833 46.458" stroke="#00214E"/>
<path d="M82.3604 46.4015C84.5167 45.8986 86.7398 45.7448 88.9448 45.946" stroke="#00214E"/>
<path d="M62.1177 69.3024C63.5123 67.0123 65.4964 65.1387 67.8626 63.8774" stroke="#00214E"/>
<path d="M68.8639 52.4814C68.6725 54.0349 67.6684 55.3688 66.2286 55.9826C65.4516 56.2641 64.6396 56.4376 63.8154 56.4984" stroke="#00214E"/>
<path d="M69.376 40.2915H81.2724" stroke="#00214E"/>
<path d="M67.8586 42.7461H79.7589" stroke="#00214E"/>
<path d="M81.2197 51.6233C81.5797 52.5819 82.0523 53.4944 82.6277 54.3414C83.1909 55.1238 84.0309 55.6622 84.9769 55.8473" stroke="#00214E"/>
<path d="M66.6579 67.9923C66.762 67.8277 66.9299 67.7139 67.1213 67.6781C67.3127 67.6424 67.5104 67.688 67.6668 67.804C68.4499 68.3537 69.8805 69.5207 71.9134 69.9236C74.6842 70.477 77.0899 69.3664 77.6621 70.0817C77.9859 70.4845 77.5906 70.9739 76.8339 71.6064C75.2349 72.8003 73.2229 73.3009 71.2508 72.9956C68.5854 72.4949 66.5826 69.4078 66.5826 68.3123C66.579 68.2008 66.605 68.0904 66.6579 67.9923Z" fill="white"/>
<path d="M65.6339 50.0006C67.9341 49.978 68.0019 53.4867 65.7054 53.5507H65.6038C63.3073 53.5771 63.2395 50.0684 65.536 50.0044H65.6377L65.6339 50.0006Z" fill="#00214E"/>
<path d="M84.5478 49.3871C86.6824 49.3607 86.7426 52.6209 84.6118 52.6774H84.5177C82.3869 52.7 82.3229 49.4435 84.4537 49.3833H84.5478V49.3871Z" fill="#00214E"/>
</svg>
