<svg width="128" height="128" viewBox="0 0 128 128" fill="none" xmlns="http://www.w3.org/2000/svg">
<path d="M39.8532 57.8709C39.2621 56.6964 38.6899 55.5067 38.1402 54.3133C37.0635 51.9792 36.0546 49.5886 35.6028 47.0587C34.1383 38.8968 38.3586 29.9971 44.416 24.7641C53.0372 17.3213 65.2499 14.5091 74.7482 7.90576C74.2218 11.1517 72.4868 14.0782 69.8917 16.0978C74.3379 12.6719 87.5859 18.3152 91.727 20.4309C98.5934 23.8881 104.429 29.0922 108.646 35.5199C104.175 33.7025 99.3084 33.0797 94.5242 33.7128C98.2437 37.3156 102.114 41.1594 103.522 46.1364C96.847 41.3251 86.1892 43.6404 82.1233 50.8121C79.5143 55.4051 79.552 60.9994 77.9821 66.0479C76.3256 71.3938 71.8569 74.7895 66.6014 76.2126C62.6409 77.2968 54.848 77.7862 51.2602 75.4596C50.1722 74.7556 49.3779 73.6789 48.6475 72.6173C45.3678 67.918 42.4289 62.99 39.8532 57.8709Z" fill="#00214E"/>
<circle cx="44.0055" cy="59.3656" r="6.4" fill="#845161"/>
<circle cx="46.2118" cy="58.9891" r="6.02353" fill="#69303A"/>
<path d="M104.839 105.758C79.6731 125.135 44.5706 124.98 19.5764 105.381L37.8955 96.7941C38.7679 96.384 39.6052 95.903 40.399 95.356C40.6399 95.1904 40.8809 95.0172 41.1105 94.8365C43.1043 93.311 44.7454 91.3732 45.9218 89.1556C47.4277 86.3132 47.9247 83.1734 47.9472 79.9734C47.9472 78.9156 47.9247 77.8539 47.8945 76.7923C47.8644 75.7306 47.8192 74.605 47.8079 73.5094C47.7929 72.3173 47.7803 71.1239 47.7703 69.9292L48.5232 70.3057L50.4809 71.3184L51.3882 71.4727L61.8842 73.2572L73.5999 75.2525L73.9538 87.2996L74.1006 92.3028L74.127 93.1499V93.2741L78.6823 95.1264L104.839 105.758Z" fill="#845161"/>
<path d="M74.0931 92.2766L73.5133 92.3369C67.8477 92.8336 62.2497 90.8171 58.2023 86.8216L47.8945 74.27C47.8606 73.1783 47.8192 74.5825 47.8079 73.487C47.7929 72.2948 47.7803 71.1014 47.7703 69.9067L48.5232 70.2832L50.4809 71.2959L51.3881 71.4503L61.8841 73.2347L73.5999 75.23L73.9538 87.2771L74.0931 92.2766Z" fill="#69303A"/>
<path d="M47.2658 47.4277C46.0917 48.466 45.3368 49.897 45.1425 51.4522C44.3557 58.8047 47.0776 67.4823 47.8343 74.8461L61.5453 84.9581C66.1015 88.3615 71.9225 89.5921 77.4663 88.3237C79.6762 87.8004 81.0766 87.4616 82.0743 85.6884C84.0018 82.3002 88.734 70.7087 89.0427 62.5317C89.1293 60.2089 89.0729 56.6701 87.6423 54.6936C86.9458 53.7336 86.5882 53.711 86.8404 52.3557C87.1002 50.9402 87.4729 49.5397 87.7853 48.1355C88.2392 46.1043 88.3663 44.0137 88.1618 41.9425C87.9547 40.0602 87.9623 38.3887 87.7627 36.4724C87.6649 35.5425 87.2507 31.4729 87.2507 31.4729C84.8602 35.072 80.5458 36.9618 76.5552 38.2042C71.1265 39.8908 65.4757 40.7153 59.9717 42.1308C56.3237 43.0833 50.4244 44.4385 47.2658 47.4277Z" fill="#845161"/>
<path d="M63.5331 53.1011C65.8296 53.1199 65.8296 56.6324 63.5331 56.6512H63.4315C61.1312 56.6324 61.1312 53.1199 63.4315 53.1011H63.5331Z" fill="#00214E"/>
<path d="M83.3695 52.0281C85.5041 52.0281 85.5041 55.3034 83.3695 55.3222H83.2754C81.1445 55.3034 81.1445 52.0431 83.2754 52.0281H83.3695Z" fill="#00214E"/>
<path d="M65.2161 70.0234C67.0245 72.044 69.5044 73.3402 72.1958 73.6714" stroke="#00214E"/>
<path d="M58.1873 48.8884C61.6721 48.1657 65.2571 48.0638 68.7774 48.5872" stroke="#00214E"/>
<path d="M80.4177 48.911C82.5698 48.4137 84.787 48.26 86.9871 48.4555" stroke="#00214E"/>
<path d="M104.839 105.758C79.6731 125.136 44.5706 124.981 19.5764 105.382L37.8955 96.7943C38.7679 96.3842 39.6052 95.9032 40.399 95.3562C40.6399 95.1906 40.8809 95.0174 41.1105 94.8367C49.9764 101.146 62.0762 105.126 72.5421 100.416C75.0343 99.2866 77.3232 97.4644 78.6785 95.1228L104.839 105.758Z" fill="#FF2609"/>
<path d="M69.8579 63.6875C69.2959 63.9751 69.0276 64.6295 69.2258 65.2288C69.424 65.8282 70.0296 66.1935 70.6522 66.0894" stroke="#00214E"/>
<path d="M75.6592 52.7546C76.5966 56.3499 77.3759 59.9076 78.2681 63.5104C78.3728 63.841 78.4111 64.189 78.3811 64.5344C78.2192 65.5697 76.9881 65.9951 75.9641 66.2172" stroke="#00214E"/>
</svg>
