<svg width="128" height="128" viewBox="0 0 128 128" fill="none" xmlns="http://www.w3.org/2000/svg">
<path d="M89.3815 55.6872C88.7962 56.2994 88.1546 56.8553 87.4653 57.3475C83.55 60.1823 78.3246 61.1122 73.8596 62.6406C71.9773 63.2844 51.565 69.0858 51.565 70.347C51.565 70.0722 49.566 68.0882 47.0474 65.6788C38.3606 57.3589 35.4645 44.6643 39.6836 33.4002C43.7909 22.6068 56.8846 15.1677 67.8512 13.4472C73.0728 12.6303 79.2695 12.1748 84.0921 14.6783C86.558 15.9621 88.6286 17.8331 90.4921 19.9075C91.0794 20.5625 91.6491 21.2314 92.2013 21.9141C92.4384 22.2002 92.6719 22.4863 92.9015 22.7762C101.474 33.5545 98.4356 46.1738 89.3815 55.6872Z" fill="url(#paint0_linear_97_1677)"/>
<path d="M89.3815 55.6872C88.7962 56.2994 88.1546 56.8553 87.4653 57.3475C87.3045 57.0674 87.16 56.7783 87.0323 56.4816C86.0385 54.2228 85.5265 51.7719 85.15 49.3287C84.5661 45.7715 84.1678 42.1865 83.9566 38.5879C83.614 32.8129 81.1481 29.9479 86.0535 25.4454C87.8189 23.8275 89.9211 22.6214 92.2088 21.9141C92.446 22.2002 92.6794 22.4863 92.909 22.7762C101.474 33.5545 98.4356 46.1738 89.3815 55.6872Z" fill="url(#paint1_linear_97_1677)"/>
<path d="M106.722 100.999C81.5555 120.377 46.453 120.222 21.4587 100.623L39.7778 92.0354C40.6502 91.6253 41.4875 91.1443 42.2813 90.5973C42.5223 90.4316 42.7632 90.2584 42.9929 90.0777C44.9887 88.5468 46.63 86.6025 47.8042 84.378C48.6935 82.674 49.2844 80.8302 49.551 78.9267C49.7348 77.6915 49.8279 76.4446 49.8296 75.1958C49.8296 73.0424 49.7129 70.889 49.6903 68.7318C49.6752 67.5397 49.6627 66.3463 49.6526 65.1516L50.4056 65.5281L52.3632 66.5408L53.2705 66.6951L63.7665 68.4796L75.4823 70.4749L75.8362 82.522L75.9529 86.4598L76.0093 88.3723V88.5191L80.5646 90.3714L106.722 100.999Z" fill="#E18477"/>
<path d="M106.722 100.999C81.5555 120.377 46.453 120.222 21.4587 100.623L39.7778 92.0355C40.6502 91.6254 41.4875 91.1444 42.2813 90.5974C42.5223 90.4318 42.7632 90.2586 42.9929 90.0779C51.8587 96.3875 63.9585 100.367 74.4244 95.6572C76.9166 94.5278 79.2056 92.7056 80.5609 90.364L106.722 100.999Z" fill="url(#paint2_linear_97_1677)"/>
<path d="M76.0018 88.3837C72.0677 88.6208 67.6705 87.6044 63.5782 85.2439C55.8945 80.8053 51.7872 73.0651 53.2629 66.7178L63.7589 68.5022L75.4747 70.4975L75.8286 82.5446L76.0018 88.3837Z" fill="#A76962"/>
<circle cx="45.9481" cy="54.6256" r="6.4" fill="#E18477"/>
<circle cx="47.9811" cy="54.6256" r="5.72988" fill="#A76962"/>
<path d="M48.2145 48.9183C48.2973 49.8971 48.2408 50.8759 48.3161 51.8585L48.9373 59.9451L49.5058 67.3691C49.7166 70.106 50.7858 71.7437 52.5627 73.931C55.7284 77.8106 59.7589 80.8948 64.3312 82.9362C68.6982 84.8825 74.7519 86.8176 79.4126 84.9315C84.175 83.0002 85.6959 77.6543 87.2997 73.2195C88.9034 68.7846 90.3867 63.9056 90.3114 59.1169C90.2098 52.619 88.4968 48.9898 88.4968 48.9898L89.7505 41.4604C90.2211 38.6369 90.8272 35.6816 90.127 32.8392C89.615 30.7686 88.2446 29.323 86.8178 27.8397C85.0559 26.0213 84.1825 26.0816 81.6865 26.7893C77.3501 28.0614 73.5639 30.7476 70.9307 34.4204C68.2992 38.0722 66.7406 42.5898 63.2733 45.4133C60.879 47.3672 57.9124 48.1691 54.8855 48.4251C53.7912 48.5569 52.6865 48.5796 51.5877 48.4929C50.4753 48.4608 49.362 48.5061 48.2559 48.6284H48.1919C48.2145 48.7188 48.2145 48.8166 48.2145 48.9183Z" fill="#E18477"/>
<path d="M76.1222 48.5269C76.0921 48.6586 81.1518 63.0097 81.1518 63.0097L74.3979 63.341" stroke="#00214E"/>
<path d="M58.7971 46.057C62.2824 45.3374 65.8671 45.2367 69.3872 45.7596" stroke="#00214E"/>
<path d="M82.3604 45.6996C84.5124 45.2023 86.7296 45.0486 88.9298 45.2441" stroke="#00214E"/>
<path d="M62.1213 68.604C63.5112 66.3117 65.4932 64.4364 67.8587 63.1753" stroke="#00214E"/>
<path d="M68.864 51.7795C68.7076 53.0611 67.9941 54.2085 66.9138 54.9155C66.6931 55.061 66.46 55.187 66.2174 55.292C65.4414 55.5772 64.6289 55.7509 63.8042 55.8078" stroke="#00214E"/>
<path d="M69.376 39.5894H81.2724" stroke="#00214E"/>
<path d="M67.8586 42.0476H79.7589" stroke="#00214E"/>
<path d="M81.2197 50.9211C81.5804 51.8806 82.053 52.7943 82.6277 53.643C83.1911 54.4251 84.031 54.9635 84.9769 55.1489" stroke="#00214E"/>
<path d="M66.6615 67.2901C66.7655 67.1255 66.9335 67.0117 67.1249 66.976C67.3163 66.9403 67.514 66.9859 67.6704 67.1019C68.4535 67.6515 69.8841 68.8186 71.917 69.2252C74.6878 69.7748 77.0935 68.668 77.6657 69.3833C77.9895 69.7824 77.5942 70.2755 76.8375 70.908C75.235 72.1035 73.2183 72.603 71.2431 72.2934C68.5777 71.7965 66.5786 68.7057 66.5786 67.6139C66.5775 67.5006 66.606 67.3889 66.6615 67.2901Z" fill="white"/>
<path d="M65.645 49.8595C67.9452 49.8332 68.013 53.3456 65.7165 53.4096H65.6111C63.3146 53.436 63.2469 49.9273 65.5433 49.8633H65.645V49.8595Z" fill="#00214E"/>
<path d="M84.559 49.2457C86.6936 49.2194 86.7539 52.4796 84.623 52.5361H84.5289C82.3981 52.5586 82.3341 49.3022 84.4649 49.2419H84.559V49.2457Z" fill="#00214E"/>
<defs>
<linearGradient id="paint0_linear_97_1677" x1="37.7486" y1="70.3561" x2="97.9726" y2="70.3561" gradientUnits="userSpaceOnUse">
<stop stop-color="#16243F"/>
<stop offset="1" stop-color="#6878B1"/>
</linearGradient>
<linearGradient id="paint1_linear_97_1677" x1="73.2191" y1="45.2158" x2="98.4675" y2="52.3718" gradientUnits="userSpaceOnUse">
<stop stop-color="#16243F"/>
<stop offset="1" stop-color="#6878B1"/>
</linearGradient>
<linearGradient id="paint2_linear_97_1677" x1="21.4587" y1="115.425" x2="106.722" y2="115.425" gradientUnits="userSpaceOnUse">
<stop stop-color="#16243F"/>
<stop offset="1" stop-color="#6878B1"/>
</linearGradient>
</defs>
</svg>
