<svg width="128" height="128" viewBox="0 0 128 128" fill="none" xmlns="http://www.w3.org/2000/svg">
<path d="M78.0121 90.0803C75.8787 92.4738 73.5185 94.6549 70.9646 96.5933C66.4055 100.03 63.0286 99.6352 57.7316 99.1759C51.5763 98.645 45.47 97.67 39.3335 96.9472C38.5542 96.8568 37.7185 96.7401 37.1462 96.1942C36.6881 95.6845 36.3805 95.0576 36.2578 94.3834C32.6373 81.2308 30.4535 67.7244 29.7448 54.101C29.0672 41.0752 35.7683 28.3203 48.414 23.5392C61.534 18.5697 78.6107 21.8714 86.3886 34.2987C97.3025 51.7556 91.2752 75.2624 78.0121 90.0803Z" fill="url(#paint0_linear_97_816)"/>
<path d="M106.722 101.212C81.5555 120.59 46.453 120.435 21.4587 100.836L39.7778 92.2487C40.3385 91.9836 40.8851 91.6895 41.4154 91.3678L41.8371 91.1043C41.9877 91.0101 42.1345 90.9123 42.2813 90.8106C44.5925 89.2162 46.4866 87.0896 47.8042 84.6101C49.31 81.7678 49.807 78.628 49.8296 75.428C49.8296 73.2746 49.7129 71.1212 49.6903 68.964C49.6752 67.7719 49.6627 66.5785 49.6526 65.3838L50.4056 65.7603L52.3632 66.773L63.7665 68.7118L75.4823 70.7071L75.8362 82.7541L76.0131 88.7287L80.3312 90.4868L83.7194 91.8572L106.722 101.212Z" fill="#00214E"/>
<path d="M75.8285 82.7465C72.0412 83.419 68.1449 83.1145 64.5081 81.8618C56.3838 79.1324 50.9137 72.5479 50.3979 65.7639L52.3556 66.7766L63.7589 68.7154L75.4747 70.7107L75.8285 82.7465Z" fill="#F2A196"/>
<circle cx="40.2408" cy="53.3329" r="6.4" fill="#F2A196"/>
<circle cx="42.4996" cy="52.5799" r="6.4" fill="#E88870"/>
<path d="M83.7384 43.6389C88.1581 58.9537 78.769 77.4723 72.9939 77.4723C65.088 77.4723 45.888 71.1551 41.472 55.8403C37.056 40.5255 42.944 25.38 54.6146 22.0106C66.2852 18.6412 79.3148 28.3278 83.7384 43.6389Z" fill="#F2A196"/>
<path d="M62.061 61.3518C63.8695 63.3724 66.3494 64.6685 69.0408 64.9998" stroke="#00214E"/>
<path d="M85.6207 34.5094C84.0508 30.6995 79.8381 28.8172 75.9642 27.4054C73.871 26.6525 71.7252 25.8995 69.4965 25.8506C67.4347 25.8556 65.3947 26.2716 63.4955 27.0741C60.1562 28.3842 56.719 30.3419 54.1553 32.8605C52.9092 34.084 51.776 35.3678 50.4885 36.5913C49.7807 37.2689 49.0993 37.9767 48.4517 38.7108C47.9586 39.2718 47.3637 40.4426 46.7463 40.8191C58.24 33.8506 72.5082 31.2718 85.6207 34.5094Z" fill="#FF2609"/>
<path d="M69.8238 44.3579C69.8238 44.4332 71.6271 47.5805 72.5796 50.98C73.0198 52.7972 73.2235 54.6636 73.1857 56.533H68.0996" stroke="#00214E"/>
<path d="M74.4958 41.154C77.1545 39.7953 80.232 39.5044 83.0982 40.3408" stroke="#00214E"/>
<path d="M52.2314 42.6523C55.8994 40.7841 60.2087 40.6461 63.9886 42.2759" stroke="#00214E"/>
<path d="M58.8348 45.988C61.1313 45.988 61.1313 49.5156 58.8348 49.5344H58.7294C56.433 49.5344 56.433 46.0069 58.7294 45.988H58.8348Z" fill="#00214E"/>
<path d="M77.7035 45.4646C79.8381 45.4646 79.8381 48.7399 77.7035 48.755H77.6093C75.4785 48.755 75.4785 45.4797 77.6093 45.4646H77.7035Z" fill="#00214E"/>
<path fill-rule="evenodd" clip-rule="evenodd" d="M73.2799 13.6078C85.1877 17.1767 91.5877 27.4769 93.8465 38.948C95.379 46.8924 95.0933 55.0807 93.0107 62.8991C90.8573 70.7673 87.3524 78.1838 83.6479 85.4496C83.5907 85.5619 83.5338 85.6736 83.4771 85.7849C81.1508 90.3512 79.2345 94.1126 74.0893 96.1376C65.0427 99.7066 54.0159 97.6774 46.6409 91.315C33.6451 80.1 27.5086 56.9847 30.0573 40.3221C32.8884 21.7546 55.4465 8.25058 73.2799 13.6078ZM59.471 74.7503C63.326 76.836 69.7185 78.7522 74.0404 77.0092C74.2947 76.8929 74.5368 76.7517 74.7632 76.5875C75.3862 76.1609 75.9506 75.6547 76.4423 75.0816C79.6649 71.5052 81.6489 67.0026 82.8423 62.2816C83.6668 58.9185 84.171 55.4848 84.3482 52.0266C84.6907 46.0369 82.9816 40.4049 80.015 35.2172C77.4173 30.6694 71.8757 26.1367 66.3491 27.5409C62.9609 28.4106 60.111 30.6129 57.6903 33.1014C56.3254 34.505 55.1348 36.04 53.9464 37.572C52.2534 39.7545 50.565 41.9312 48.3839 43.7141C47.3668 44.5787 46.2629 45.3357 45.0898 45.9729C44.9091 46.0633 42.5223 47.2454 42.4959 47.1249C42.7476 48.4129 43.0655 49.6871 43.4484 50.9423C45.9557 59.6463 50.0517 68.6515 57.8747 73.7941C58.3918 74.1329 58.9238 74.4517 59.471 74.7503Z" fill="url(#paint1_linear_97_816)"/>
<defs>
<linearGradient id="paint0_linear_97_816" x1="29.6959" y1="99.485" x2="92.0432" y2="99.485" gradientUnits="userSpaceOnUse">
<stop stop-color="#16243F"/>
<stop offset="1" stop-color="#6878B1"/>
</linearGradient>
<linearGradient id="paint1_linear_97_816" x1="29.4926" y1="97.8862" x2="94.8178" y2="97.8862" gradientUnits="userSpaceOnUse">
<stop stop-color="#16243F"/>
<stop offset="1" stop-color="#6878B1"/>
</linearGradient>
</defs>
</svg>
