<svg width="128" height="128" viewBox="0 0 128 128" fill="none" xmlns="http://www.w3.org/2000/svg">
<path d="M99.9716 42.142C99.9716 45.1048 96.6211 47.5895 95.8907 50.3227C95.1378 53.1538 96.7716 56.9749 95.3411 59.4521C93.9105 61.9293 89.7429 62.4639 87.7062 64.4855C85.6695 66.5072 85.1801 70.6672 82.6691 72.1204C80.158 73.5735 76.3707 71.9171 73.5434 72.6738C70.8102 73.4041 68.3255 76.7547 65.3589 76.7547C62.3924 76.7547 59.9114 73.4041 57.1782 72.6738C54.3509 71.9208 50.526 73.5547 48.0526 72.1204C45.5792 70.686 45.0408 66.526 43.0154 64.4855C40.99 62.4451 36.8338 61.9632 35.3806 59.4521C33.9274 56.9411 35.5839 53.1538 34.8309 50.3227C34.1006 47.5895 30.75 45.1048 30.75 42.142C30.75 39.1792 34.1006 36.6945 34.8309 33.9613C35.5839 31.1302 33.95 27.3091 35.3806 24.8319C36.8112 22.3547 40.9787 21.8201 43.0154 19.7985C45.0521 17.7768 45.5378 13.6168 48.0526 12.1636C50.5674 10.7105 54.3509 12.3669 57.1782 11.6102C59.9114 10.8799 62.3961 7.5293 65.3589 7.5293C68.3218 7.5293 70.8102 10.8799 73.5434 11.6102C76.3707 12.3632 80.1919 10.7293 82.6691 12.1636C85.1462 13.598 85.6808 17.758 87.7062 19.7985C89.7316 21.8389 93.8879 22.3208 95.3411 24.8319C96.7942 27.3429 95.134 31.1302 95.8907 33.9613C96.6211 36.6945 99.9716 39.1792 99.9716 42.142Z" fill="#00214E"/>
<circle cx="45.8878" cy="59.3543" r="6.4" fill="#E18477"/>
<circle cx="48.0941" cy="58.9779" r="6.02353" fill="#A76962"/>
<path d="M106.722 105.728C81.5555 125.105 46.453 124.95 21.4587 105.351L39.7778 96.7641C40.6502 96.354 41.4875 95.873 42.2813 95.326C42.5223 95.1603 42.7632 94.9872 42.9929 94.8065C44.9866 93.281 46.6277 91.3432 47.8042 89.1255C49.31 86.2832 49.807 83.1434 49.8296 79.9434C49.8296 77.79 49.7129 75.6366 49.6903 73.4794C49.6752 72.2872 49.6627 71.0938 49.6526 69.8992L50.4056 70.2756L52.3557 71.3072L53.263 71.4615L63.759 73.246L75.4747 75.2413L75.8286 87.2883L76.0018 93.1387V93.2629L80.5571 95.1152L106.722 105.728Z" fill="#E18477"/>
<path d="M75.9566 91.7797L75.3768 91.8399C69.7112 92.3366 64.1133 90.3202 60.0658 86.3246L49.758 74.4997C49.7241 73.4079 49.6827 74.0856 49.6714 72.9938C49.6564 71.8017 49.6438 70.6082 49.6338 69.4136L50.3867 69.79L52.3444 70.8028L53.2517 70.9571L63.7477 72.7416L75.4634 74.7369L75.8173 86.7839L75.9566 91.7797Z" fill="#A76962"/>
<path d="M47.8117 46.3283C47.5143 46.7048 47.2507 47.4389 46.9684 48.6286C46.3171 51.3881 49.1707 69.5076 49.7166 74.8384L63.4277 84.9504C67.9845 88.3524 73.8049 89.5829 79.3486 88.3161C81.5585 87.7928 82.959 87.454 83.9566 85.6808C85.8842 82.2926 90.6164 70.701 90.9251 62.5241C91.0117 60.205 90.9552 56.6662 89.5246 54.686C88.8282 53.726 88.4705 53.7071 88.7227 52.3481C88.975 50.989 89.3552 49.5359 89.6677 48.1279C90.5298 44.2389 91.2187 39.8455 89.9726 35.9754C89.31 33.9048 88.1392 32.5344 86.4752 31.2055C84.6983 29.7824 83.9642 29.8502 82.8987 31.9584C82.1797 33.389 81.4569 34.5937 79.9999 35.4069C77.8879 36.5777 76.4498 35.8173 74.3529 35.6554C72.5157 35.5161 72.7114 36.9354 72.3086 38.2907C71.8915 39.7134 70.9899 40.9453 69.7599 41.773C67.4737 43.2564 64.5329 43.2726 62.2305 41.8144C61.9182 41.5903 61.5419 41.4728 61.1576 41.4794C59.9001 41.5471 59.8437 43.0568 59.5576 44.141C58.9514 46.3999 56.3124 47.6497 53.967 47.469C50.142 47.1829 48.7792 45.0521 47.8117 46.3283Z" fill="#E18477"/>
<path d="M78.0273 53.0635C78.1306 54.526 78.3829 55.9741 78.7802 57.3854C79.1567 58.6315 79.7289 59.407 80.4818 60.4799C80.7418 60.8342 80.9674 61.2124 81.1557 61.6094C82.1496 63.8456 80.8282 66.3265 78.3134 66.3265H76.7585" stroke="#00214E"/>
<path d="M67.0984 70.0159C68.9083 72.0346 71.3875 73.3303 74.0782 73.6639" stroke="#00214E"/>
<path d="M60.0696 48.8771C63.5548 48.1575 67.1395 48.0568 70.6597 48.5797" stroke="#00214E"/>
<path d="M82.3 48.9184C84.4527 48.4167 86.6719 48.2629 88.8732 48.4628" stroke="#00214E"/>
<path d="M106.722 105.728C81.5555 125.105 46.453 124.95 21.4587 105.351L39.7778 96.764C40.6502 96.3539 41.4875 95.8729 42.2813 95.3259C42.5223 95.1603 42.7632 94.9871 42.9929 94.8064C51.8587 101.116 63.9585 105.095 74.4244 100.386C76.9166 99.2563 79.2056 97.4342 80.5609 95.0925L106.722 105.728Z" fill="url(#paint0_linear_97_1448)"/>
<path d="M71.7402 63.676C71.1834 63.9674 70.9194 64.6192 71.1164 65.216C71.3135 65.8128 71.9137 66.1791 72.5345 66.0817" stroke="#00214E"/>
<path d="M65.5962 52.4573C67.8965 52.4573 67.8965 55.9886 65.5962 56.0074H65.4946C63.1981 55.9886 63.1981 52.4761 65.4946 52.4573H65.5962Z" fill="#00214E"/>
<path d="M84.5214 52.2087C86.6523 52.2087 86.6523 55.484 84.5214 55.5029H84.4236C82.2927 55.484 82.2927 52.2276 84.4236 52.2087H84.5214Z" fill="#00214E"/>
<circle cx="45.8729" cy="58.9777" r="2.26259" fill="#F2D4CF"/>
<path d="M41.5849 64.4252C41.4418 64.4026 41.2988 64.3763 41.1557 64.3424C38.4375 63.7174 36.6229 61.1498 36.9412 58.3789C37.2594 55.6081 39.6089 53.5187 42.398 53.5264C42.5584 53.5259 42.6982 53.6356 42.7358 53.7915C42.7734 53.9474 42.6991 54.1087 42.5562 54.1814C40.8961 55.0788 39.8143 56.767 39.6927 58.6502C39.5711 60.5334 40.4267 62.3467 41.9576 63.4502C42.1592 63.5919 42.2388 63.8525 42.1508 64.0828C42.0628 64.313 41.8297 64.4541 41.5849 64.4252Z" fill="#F2D4CF"/>
<path d="M41.4607 54.1212C42.2406 53.8238 43.1044 53.8332 43.8776 54.1476C44.6984 54.5124 45.3254 55.2092 45.6019 56.0638C45.8155 56.6672 45.9076 57.307 45.8729 57.9462" stroke="#F2D4CF" stroke-width="2"/>
<defs>
<linearGradient id="paint0_linear_97_1448" x1="21.4587" y1="120.153" x2="106.722" y2="120.153" gradientUnits="userSpaceOnUse">
<stop stop-color="#315676"/>
<stop offset="1" stop-color="#E1B9E0"/>
</linearGradient>
</defs>
</svg>
