<svg width="128" height="128" viewBox="0 0 128 128" fill="none" xmlns="http://www.w3.org/2000/svg">
<path d="M106.722 101.278C81.5555 120.655 46.453 120.5 21.4587 100.901L39.7778 92.3142C40.6502 91.904 41.4875 91.4231 42.2813 90.876C42.5223 90.7104 42.7632 90.5372 42.9929 90.3565C44.9866 88.831 46.6277 86.8933 47.8042 84.6756C48.6935 82.9716 49.2844 81.1278 49.551 79.2243C49.7348 77.9891 49.8279 76.7422 49.8296 75.4935C49.8296 73.34 49.7129 71.1866 49.6903 69.0295C49.6752 67.8348 49.6627 66.6414 49.6526 65.4492L50.4056 65.8257L52.3632 66.8384L53.2705 66.9927L63.7665 68.7772L75.4823 70.7725L75.8362 82.8196L75.9529 86.7575L76.0093 88.6699V88.7942L80.5646 90.6464L106.722 101.278Z" fill="#DE8276"/>
<path d="M75.934 88.7977C74.6401 89.0204 73.3088 88.8141 72.1429 88.2104L49.6789 69.8462C49.6526 68.9954 49.63 69.8876 49.6187 69.0368C49.6036 67.8421 49.5911 66.6487 49.5811 65.4565L50.334 65.833L52.2916 66.8457L53.1989 67.0001L63.6949 68.7845L75.4107 70.7798L75.7646 82.8269L75.8813 86.7648L75.9378 88.6772V88.8015L75.934 88.7977Z" fill="#A76962"/>
<path d="M87.5292 55.3108C86.9439 55.923 86.3023 56.4788 85.613 56.971C81.6977 59.8058 76.4723 60.7357 72.0073 62.2642C70.125 62.9079 49.7127 68.7094 49.7127 69.9705C49.7127 69.6957 47.7137 67.7117 45.1951 65.3023C36.5083 56.9824 33.6122 44.2878 37.8313 33.0237C41.9386 22.2303 55.0323 14.7912 65.9989 13.0708C71.2205 12.2538 77.4172 11.7983 82.2398 14.3018C84.7057 15.5856 86.7575 17.4567 88.6398 19.531C89.2271 20.1861 89.7968 20.8549 90.349 21.5376C90.5862 21.8237 90.8196 22.1098 91.0492 22.3997C99.6214 33.1668 96.5833 45.7974 87.5292 55.3108Z" fill="url(#paint0_linear_97_1526)"/>
<path d="M87.5294 55.3107C86.9441 55.9229 86.3025 56.4787 85.6132 56.9709C85.4524 56.6908 85.3079 56.4017 85.1803 56.105C84.1864 53.8462 83.6744 51.3954 83.2979 48.9521C82.7116 45.3964 82.3108 41.8125 82.097 38.2151C81.7544 32.4401 79.2885 29.5751 84.1939 25.0726C85.9592 23.4547 88.0615 22.2486 90.3492 21.5413C90.5864 21.8274 90.8198 22.1135 91.0494 22.4034C99.6217 33.1667 96.5835 45.7973 87.5294 55.3107Z" fill="url(#paint1_linear_97_1526)"/>
<circle cx="45.9481" cy="54.9154" r="6.4" fill="#E18477"/>
<circle cx="47.9811" cy="54.9154" r="5.72988" fill="#A76962"/>
<path d="M48.4593 48.8467C48.7718 52.9351 48.7605 57.9271 48.8697 59.3878C49.1533 63.0496 49.4344 66.7102 49.713 70.3695L74.7257 84.9803C78.3156 86.3222 82.3375 84.717 84.017 81.2721C87.616 73.9008 93.3911 62.2603 92.6306 57.9309C91.5012 51.5309 88.4894 49.2721 88.4894 49.2721L89.7431 41.7653C91.0118 34.1342 88.3953 26.9097 79.4805 26.074C77.5981 25.9008 75.5012 26.2584 74.3831 27.7606C71.3713 31.8114 73.1068 36.7958 68.5854 40.5606C63.0965 45.0895 50.8499 47.066 47.9812 43.4104C47.9812 43.4104 48.2447 45.9968 48.4593 48.8467Z" fill="#DE8276"/>
<path d="M67.23 64.8167C69.0389 66.8367 71.5186 68.1327 74.2097 68.4647" stroke="#00214E"/>
<path d="M76.1222 47.0435C76.0921 47.1752 81.1518 60.6453 81.1518 60.6453L74.3979 60.9729" stroke="#00214E"/>
<circle cx="66.9138" cy="51.802" r="5.70729" fill="#00214E"/>
<circle cx="86.2493" cy="50.8797" r="5.70729" fill="#00214E"/>
<path d="M71.5293 52.1371L81.1406 51.3164" stroke="#00214E"/>
<path d="M60.1299 44.4307C63.6149 43.7099 67.1996 43.608 70.72 44.1296" stroke="#00214E"/>
<path d="M82.3604 44.4797C84.5118 43.9783 86.7297 43.8245 88.9298 44.0241" stroke="#00214E"/>
<path d="M106.722 101.278C81.5555 120.655 46.453 120.5 21.4587 100.901L39.7778 92.314C40.6502 91.9039 41.4875 91.4229 42.2813 90.8759C42.5223 90.7102 42.7632 90.5371 42.9929 90.3564C44.9866 88.8309 46.6277 86.8931 47.8042 84.6754C48.6935 82.9714 49.2844 81.1277 49.551 79.2241C49.8168 79.4817 50.0958 79.7255 50.3867 79.9545C52.6951 81.6614 55.2003 83.0847 57.8484 84.1935C59.134 84.7298 60.4487 85.1936 61.7863 85.5827C65.816 86.7578 70.0234 87.2027 74.2098 86.8966C74.7896 86.8514 75.3731 86.7949 75.9529 86.7535L76.0093 88.666V88.7902L80.5646 90.6425L106.722 101.278Z" fill="#00214E"/>
<path d="M65.261 48.6624C67.5575 48.6624 67.5575 52.1936 65.261 52.2125H65.1556C62.8554 52.2125 62.8554 48.6812 65.1556 48.6624H65.2572H65.261Z" fill="#00214E"/>
<path d="M84.1335 48.1389C86.2643 48.1577 86.2643 51.4142 84.1335 51.433H84.0356C81.9048 51.433 81.9048 48.1577 84.0356 48.1389H84.1335Z" fill="#00214E"/>
<defs>
<linearGradient id="paint0_linear_97_1526" x1="35.8963" y1="69.9852" x2="96.124" y2="69.9852" gradientUnits="userSpaceOnUse">
<stop stop-color="#16243F"/>
<stop offset="1" stop-color="#6878B1"/>
</linearGradient>
<linearGradient id="paint1_linear_97_1526" x1="71.3675" y1="44.8318" x2="96.6201" y2="51.9961" gradientUnits="userSpaceOnUse">
<stop stop-color="#16243F"/>
<stop offset="1" stop-color="#6878B1"/>
</linearGradient>
</defs>
</svg>
