<svg width="128" height="128" viewBox="0 0 128 128" fill="none" xmlns="http://www.w3.org/2000/svg">
<path d="M106.722 104.803C81.5555 124.181 46.453 124.026 21.4587 104.427L39.7778 95.8393C40.6502 95.4292 41.4875 94.9482 42.2813 94.4012C42.5223 94.2355 42.7632 94.0624 42.9929 93.8817C44.9866 92.3562 46.6277 90.4184 47.8042 88.2007C48.6935 86.4967 49.2844 84.653 49.551 82.7494C49.7348 81.5143 49.8279 80.2673 49.8296 79.0186C49.8296 77.716 49.7957 76.4134 49.7505 75.1108C49.7242 74.26 49.7016 73.4054 49.6903 72.5546C49.6752 71.3624 49.6627 70.169 49.6526 68.9744L50.4056 69.3508L52.3632 70.3635L53.2705 70.5179L63.7665 72.3024L75.4823 74.2977L75.8362 86.3447L75.9529 90.2826L76.0093 92.1951V92.3118L76.3858 92.4699L80.5533 94.164L106.722 104.803Z" fill="#F2A196"/>
<path d="M76.0055 92.3119C74.6126 92.4738 72.2408 91.9354 70.9307 91.2239C66.0366 88.5209 63.5933 86.3298 60.9994 84.4173C57.9124 82.1359 49.7806 74.8173 49.7806 74.8173C49.7542 73.9665 49.7015 73.4018 49.6902 72.5585C49.6752 71.3663 49.6626 70.1729 49.6526 68.9783L50.4055 69.3547L52.3632 70.3674L53.2705 70.5218L63.7665 72.3063L75.4822 74.3016L75.8361 86.3486L75.9528 90.2865L76.0093 92.199V92.3119H76.0055Z" fill="#E88870"/>
<path d="M106.722 104.803C81.5555 124.18 46.453 124.025 21.4587 104.427L39.7778 95.8392C40.6502 95.4291 41.4875 94.9481 42.2813 94.4011C42.5223 94.2355 42.7632 94.0623 42.9929 93.8816C51.8587 100.191 63.9585 104.171 74.4244 99.4609C76.9166 98.3315 79.2056 96.5094 80.5609 94.1677L106.722 104.803Z" fill="#FF2609"/>
<path d="M99.9831 29.4036C99.9492 29.6257 99.9078 29.844 99.8588 30.0624C99.5977 31.1817 99.1781 32.2579 98.6127 33.2586L98.5826 33.3113C98.368 33.6878 98.1384 34.0643 97.8899 34.4408C97.2306 35.4072 96.5114 36.3314 95.7365 37.2078L95.2734 37.7236C94.961 38.0737 94.6447 38.4163 94.3285 38.7551C96.0038 38.3786 97.6264 39.941 97.9238 41.6276C98.2212 43.3142 97.5473 45.0158 96.7153 46.5217C95.2584 49.1871 93.1577 50.9603 91.3092 53.2756C89.9238 54.9998 89.1558 57.0403 87.6461 58.6892L87.5332 58.8135C83.5464 62.9998 77.2518 63.9786 72.0113 65.7669C70.129 66.4144 49.7167 72.212 49.7167 73.477C49.7167 73.2022 47.7177 71.2182 45.1991 68.805C36.1638 60.2252 33.1934 46.9697 38.5694 35.6003C44.3482 23.365 57.472 14.6346 69.9708 10.4408C73.8786 9.13063 78.3134 8.24969 82.0179 10.0643C85.7224 11.8789 87.5671 17.5071 84.4951 20.2553C86.4272 18.7935 88.8305 18.0952 91.2452 18.2939C93.4755 18.4337 95.5789 19.3797 97.1633 20.9556C98.4184 22.2164 99.3206 23.7846 99.7798 25.5033C100.12 26.7748 100.189 28.1036 99.9831 29.4036Z" fill="#845161"/>
<path d="M99.9831 29.4037C99.9492 29.6258 99.9078 29.8441 99.8589 30.0625C99.825 30.1265 99.7911 30.1942 99.7572 30.2695C99.3318 31.2408 99.136 32.2874 98.6278 33.2587L98.5977 33.3114C98.3831 33.6879 98.1535 34.0644 97.905 34.4408C97.2521 35.412 96.5326 36.3365 95.7516 37.2079L95.2735 37.7237C94.961 38.0738 94.6447 38.4164 94.3285 38.7552C96.0038 38.3787 97.6264 39.9411 97.9238 41.6277C98.2212 43.3142 97.5473 45.0159 96.7153 46.5218C95.2584 49.1872 93.1577 50.9604 91.3092 53.2757C89.9238 54.9999 89.1558 57.0404 87.6462 58.6893C85.8935 56.605 84.7774 54.0606 84.4311 51.3594C83.8137 46.3674 84.1902 40.9274 84.0207 35.8752C83.9153 32.6978 82.8913 32.1105 84.7963 29.5392C86.3281 27.6493 88.0999 25.9674 90.0669 24.5359C91.6029 23.5232 93.5793 23.3651 95.4127 23.6248C97.0103 23.8433 98.5178 24.4942 99.7723 25.5072C100.115 26.7769 100.186 28.1044 99.9831 29.4037Z" fill="#69303A"/>
<circle cx="45.9481" cy="58.4295" r="6.4" fill="#F2A196"/>
<circle cx="47.9774" cy="58.4293" r="5.72988" fill="#E88870"/>
<path d="M48.064 52.4059L49.7129 73.1118L74.7256 88.5019C78.3184 89.8402 82.3401 88.2302 84.0169 84.7823C85.9224 80.8923 87.5747 76.8834 88.9637 72.7805C89.9576 69.8289 90.9289 66.7983 91.023 63.6586C91.1171 60.5188 90.2249 57.2586 89.1407 54.3598C89.0277 54.0548 88.4254 53.1174 88.4781 52.7974C88.8972 50.2876 89.3138 47.7853 89.728 45.2906C90.2023 42.4633 90.8084 39.5118 90.1044 36.6694C89.3026 33.4092 86.8404 32.02 84.815 29.5842C79.4842 36.4511 70.72 40.3325 63.0663 44.2666C59.1322 46.2995 48.064 52.4059 48.064 52.4059Z" fill="#F2A196"/>
<path d="M89.6527 70.6648C88.0301 77.0347 86.2343 83.5966 84.8978 85.9533C83.8964 87.7114 82.4997 88.0502 80.2898 88.5886C74.7461 89.8575 68.9248 88.6269 64.3689 85.2229L49.6527 73.3717C49.4268 71.1542 49.2762 70.8154 49.167 68.5867C49.1143 67.5778 48.7906 66.5688 49.0315 65.575C49.0977 66.0971 49.3208 66.5867 49.6715 66.9792C51.4522 69.3961 53.5303 72.1255 56.4894 73.1194C59.5764 74.1547 63.0889 74.3166 66.0706 72.8559C68.6644 71.5834 71.2056 69.9232 73.9124 68.8766C75.7128 68.1332 77.6555 67.7977 79.6009 67.894C82.3642 68.0822 83.5463 69.3284 85.568 70.9735C86.2306 71.5157 86.9722 72.0804 87.8268 72.103C88.7906 72.0841 88.8395 71.286 89.6527 70.6648Z" fill="#845161"/>
<path d="M66.556 51.5776C68.8525 51.5776 68.8525 55.1089 66.556 55.1278H66.4506C64.1542 55.1278 64.1542 51.5965 66.4506 51.5776H66.556Z" fill="#00214E"/>
<path d="M85.4249 51.0544C87.5595 51.0733 87.5595 54.3297 85.4249 54.3486H85.3308C83.2 54.3486 83.2 51.0733 85.3308 51.0544H85.4249Z" fill="#00214E"/>
<path d="M76.1222 50.5574C76.0921 50.6891 81.1518 64.1593 81.1518 64.1593L74.3979 64.4868" stroke="#00214E"/>
<path d="M60.1299 47.9523C63.6151 47.2327 67.1998 47.132 70.72 47.6549" stroke="#00214E"/>
<path d="M82.3604 47.9937C84.5122 47.4946 86.7297 47.3408 88.9298 47.5382" stroke="#00214E"/>
<path d="M74.0103 71.6058C76.1261 72.3377 78.4195 72.3798 80.5609 71.7263C80.7905 71.6548 80.6926 71.2896 80.463 71.3498C78.3872 71.9859 76.1629 71.9451 74.1119 71.2331C73.8823 71.1541 73.7844 71.5155 74.0103 71.6096V71.6058Z" fill="#F2A196"/>
</svg>
