<svg width="128" height="128" viewBox="0 0 128 128" fill="none" xmlns="http://www.w3.org/2000/svg">
<path d="M106.722 101.715C81.5555 121.092 46.453 120.937 21.4587 101.338L39.7778 92.7511C40.6502 92.341 41.4875 91.86 42.2813 91.313C42.5223 91.1474 42.7632 90.9742 42.9929 90.7935C44.9866 89.268 46.6277 87.3302 47.8042 85.1125C48.6944 83.4062 49.2852 81.5598 49.551 79.6537C49.7348 78.4186 49.8279 77.1716 49.8296 75.9229C49.8296 73.7695 49.7129 71.6161 49.6903 69.4589C49.6752 68.2642 49.6627 67.0708 49.6526 65.8787L50.4056 66.2551L52.3632 67.2678L53.2705 67.4222L63.7665 69.2067L75.4823 71.202L75.8362 83.249L75.9529 87.1869L76.0093 89.0994V89.2236L80.5646 91.0758L106.722 101.715Z" fill="#F2D4CF"/>
<path d="M76.0094 88.3502C74.7155 88.5728 73.3843 88.3666 72.2184 87.7629L49.7544 69.3987C49.728 68.5479 49.7054 69.4401 49.6941 68.5893C49.6791 67.3946 49.6665 66.2012 49.6565 65.009L50.4094 65.3855L52.3671 66.3982L53.2744 66.5526L63.7628 68.3596L75.4786 70.3549L75.8325 82.402L75.9492 86.3399L76.0057 88.2523V88.3766L76.0094 88.3502Z" fill="#DAAEA8"/>
<path d="M101.297 11.6707L101.195 11.7121L100.043 33.5925C99.4329 45.2139 92.0284 55.3828 81.1556 59.5314L49.7203 70.4001C49.7203 70.1252 47.7213 68.1412 45.2027 65.7281C38.586 59.4352 34.7526 50.7631 34.5523 41.6339C34.1984 25.7055 46.5994 12.1638 62.5391 11.6782C62.8403 11.6782 63.1415 11.6782 63.4464 11.6782L101.297 11.6707Z" fill="url(#paint0_linear_97_953)"/>
<path d="M101.188 11.7122L100.988 31.3827C100.863 43.9756 92.966 55.1799 81.1482 59.5315V33.6943C81.1482 33.6943 90.4809 11.8176 101.188 11.7122Z" fill="url(#paint1_linear_97_953)"/>
<circle cx="45.9481" cy="55.3412" r="6.4" fill="#F2D4CF"/>
<circle cx="47.9811" cy="55.3412" r="5.72988" fill="#DAAEA8"/>
<path d="M48.064 49.3027L49.7129 70.7615L74.7256 85.3761C78.3165 86.7155 82.3375 85.1091 84.0169 81.6641C87.616 74.2928 93.391 62.6523 92.6306 58.3229C91.5011 51.9229 88.4894 49.6641 88.4894 49.6641L89.743 42.1573C90.2136 39.33 90.8197 36.3785 90.1195 33.5361C89.3176 30.2759 86.8555 28.8867 84.8301 26.4509C79.4993 33.3178 70.735 37.1992 63.0814 41.1333C59.1322 43.2114 48.064 49.3027 48.064 49.3027Z" fill="#F2D4CF"/>
<path d="M60.1299 44.8641C63.6151 44.1445 67.1998 44.0439 70.72 44.5667" stroke="#00214E"/>
<path d="M82.3604 44.9054C84.5118 44.4041 86.7297 44.2503 88.9298 44.4499" stroke="#00214E"/>
<path d="M73.6901 59.3921C73.1282 59.6797 72.8599 60.3341 73.0581 60.9334C73.2563 61.5328 73.8619 61.8981 74.4845 61.794" stroke="#00214E"/>
<ellipse cx="65.42" cy="50.233" rx="1.23106" ry="2.98918" transform="rotate(-85.77 65.42 50.233)" fill="#00214E"/>
<ellipse cx="85.0308" cy="49.9642" rx="2.98918" ry="1.23106" transform="rotate(-7.27 85.0308 49.9642)" fill="#00214E"/>
<path d="M80.4894 55.4956C80.4894 55.4956 80.5985 57.6227 81.0955 58.6203C81.3101 59.0495 81.6451 59.4109 81.8484 59.8401C82.6842 61.4702 81.3364 61.8128 80.0376 61.8128" stroke="#00214E"/>
<path d="M106.722 101.715C81.5555 121.092 46.453 120.937 21.4587 101.339L39.7778 92.7512C40.6502 92.3411 41.4875 91.8601 42.2813 91.3131C42.5223 91.1475 42.7632 90.9743 42.9929 90.7936C44.9866 89.2681 46.6277 87.3303 47.8042 85.1126C48.6944 83.4063 49.2852 81.5599 49.551 79.6538C49.8168 79.9114 50.0958 80.1552 50.3867 80.3842C52.6951 82.0911 55.2003 83.5143 57.8484 84.6232C59.134 85.1595 60.4487 85.6233 61.7863 86.0124C65.816 87.1874 70.0234 87.6324 74.2098 87.3263C74.7896 87.2811 75.3731 87.2246 75.9529 87.1832L76.0093 89.0957V89.2199L80.5646 91.0722L106.722 101.715Z" fill="#00214E"/>
<path d="M67.4748 66.127C67.5781 65.9615 67.7461 65.8469 67.9379 65.8111C68.1297 65.7754 68.3277 65.8217 68.4837 65.9388C69.2668 66.4884 70.6974 67.6555 72.7303 68.0583C75.5011 68.6117 77.903 67.5011 78.479 68.2164C78.8028 68.6193 78.4075 69.1087 77.6508 69.7223C76.0488 70.9192 74.0322 71.42 72.0564 71.1115C69.391 70.6108 67.3882 67.5237 67.3882 66.4282C67.3913 66.3221 67.4211 66.2186 67.4748 66.127Z" fill="white"/>
<defs>
<linearGradient id="paint0_linear_97_953" x1="75.9557" y1="78.098" x2="127.422" y2="22.7588" gradientUnits="userSpaceOnUse">
<stop stop-color="#315676"/>
<stop offset="1" stop-color="#E1B9E0"/>
</linearGradient>
<linearGradient id="paint1_linear_97_953" x1="63.2907" y1="18.207" x2="121.97" y2="73.5171" gradientUnits="userSpaceOnUse">
<stop stop-color="#315676"/>
<stop offset="1" stop-color="#E1B9E0"/>
</linearGradient>
</defs>
</svg>
