<svg width="128" height="128" viewBox="0 0 128 128" fill="none" xmlns="http://www.w3.org/2000/svg">
<circle cx="60.446" cy="19.0756" r="11.5464" fill="url(#paint0_linear_97_1352)"/>
<path d="M70.4226 81.7353C64.3917 81.6307 58.3768 81.0796 52.4273 80.0864C40.576 78.1062 28.9732 74.3226 18.4471 68.4911C17.8221 68.141 17.1972 67.7871 16.5647 67.4257C25.8974 58.5673 32.8245 47.8492 38.6786 36.4798C42.8951 28.2765 45.0786 22.8666 54.1854 19.4144C70.0198 13.4172 91.4108 19.2488 95.9134 37.0633C97.8146 44.5928 97.8861 52.4648 96.8056 60.1259C95.7628 67.5349 93.0183 81.8031 93.0183 81.8031C93.0183 81.8031 73.3779 81.788 70.4226 81.7353Z" fill="url(#paint1_linear_97_1352)"/>
<path d="M111.695 105.83C86.5286 125.207 51.4261 125.052 26.4319 105.453L44.7509 96.8658C45.3117 96.6007 45.8583 96.3066 46.3886 95.9849L46.8102 95.7213C46.9608 95.6272 47.1076 95.5293 47.2545 95.4277C49.5661 93.8322 51.4603 91.7043 52.7773 89.2235C54.2832 86.3811 54.7801 83.2413 54.8027 80.0413C54.8027 78.2832 54.7312 76.5251 54.686 74.7708C54.686 74.3742 54.6785 73.9789 54.6634 73.5849C54.6484 72.3902 54.6358 71.1968 54.6258 70.0046H54.6521L55.3712 70.3811L57.3288 71.3938L68.7321 73.3326L80.4479 75.3279L80.7152 84.3632L80.7905 86.9533V87.3562L80.9674 93.3308L85.2855 95.0889L88.6738 96.4592L111.695 105.83Z" fill="#F2A196"/>
<path d="M80.7153 84.3708C79.9039 84.9265 78.9347 85.2051 77.952 85.1651C72.384 84.5666 61.5229 80.2033 54.6862 72.128C54.6862 71.7314 54.6786 71.3361 54.6636 70.9421V70.0122L55.3826 70.3887L57.3403 71.4014L68.7436 73.3402L80.4593 75.3355L80.7153 84.3708Z" fill="#E88870"/>
<circle cx="45.2103" cy="57.9501" r="6.4" fill="#F2A196"/>
<circle cx="47.4691" cy="57.1971" r="6.4" fill="#E88870"/>
<path d="M88.7079 48.2595C93.1314 63.5744 83.7385 82.0929 77.9634 82.0929C70.0575 82.0929 50.8575 75.7758 46.4415 60.4609C42.0255 45.1461 47.8834 29.9969 59.554 26.6275C71.2246 23.2581 84.2881 32.956 88.7079 48.2595Z" fill="#F2A196"/>
<path d="M64.9298 51.4409C67.2263 51.4597 67.2263 54.9684 64.9298 54.9873H64.8244C62.5279 54.9684 62.5279 51.4597 64.8244 51.4409H64.9261H64.9298Z" fill="#00214E"/>
<path d="M83.8514 49.9951C85.986 50.0139 85.986 53.2704 83.8514 53.2892H83.7573C81.6265 53.2892 81.6265 50.0139 83.7573 49.9951H83.8514Z" fill="#00214E"/>
<circle cx="64.9261" cy="53.244" r="7.15294" stroke="white"/>
<circle cx="84.9281" cy="52.1146" r="7.15294" stroke="white"/>
<path d="M74.1384 27.8963C72.5159 34.9363 68.9808 40.9147 62.5206 45.2704C55.5483 50.0968 48.1883 52.4234 40.1582 54.0234C40.3615 49.0878 39.8194 42.1457 42.3643 37.7448C45.2527 32.8583 49.4714 28.8941 54.5281 26.3151C60.1036 23.4351 68.7286 20.6116 74.993 22.6069C74.8188 24.3862 74.5334 26.1527 74.1384 27.8963Z" fill="url(#paint2_linear_97_1352)"/>
<path d="M74.7933 48.9749C74.7632 49.1029 77.775 61.1499 77.775 61.1499H73.0691" stroke="#00214E"/>
<path d="M79.1077 45.1311C81.7663 43.7724 84.8438 43.4815 87.71 44.3179" stroke="#00214E"/>
<path d="M58.3604 46.509C62.0283 44.6408 66.3376 44.5028 70.1175 46.1326" stroke="#00214E"/>
<path d="M72.0791 53.2442L77.7751 52.7585" stroke="white"/>
<path d="M111.691 105.829C86.5249 125.207 51.4225 125.052 26.4282 105.453L44.7473 96.8657C45.6197 96.4555 46.457 95.9746 47.2508 95.4275C47.4918 95.2619 47.7327 95.0887 47.9623 94.908C49.9579 93.3818 51.6003 91.4427 52.7774 89.2233C53.6647 87.5214 54.2542 85.6803 54.5205 83.7795C54.7863 84.0372 55.0653 84.2809 55.3562 84.5099C57.6646 86.2168 60.1698 87.6401 62.8179 88.749C64.1035 89.2852 65.4182 89.749 66.7558 90.1381C70.7855 91.3132 74.9929 91.7581 79.1793 91.452C79.759 91.4068 80.3426 91.3504 80.9223 91.309L80.9788 93.2214V93.3457L85.5341 95.1979L111.691 105.829Z" fill="#845161"/>
<path d="M65.0089 65.4005C65.1137 65.2356 65.2823 65.1218 65.4743 65.0861C65.6663 65.0504 65.8646 65.0961 66.0216 65.2122C66.8009 65.7619 68.2315 66.9289 70.2644 67.3318C73.0352 67.8852 75.4409 66.7746 76.0131 67.4899C76.3369 67.8927 75.9416 68.3859 75.1849 69.0146C73.5843 70.2112 71.5688 70.712 69.5943 70.4038C66.9251 69.903 64.9261 66.816 64.9261 65.7205C64.9248 65.6083 64.9534 65.4979 65.0089 65.4005Z" fill="white"/>
<defs>
<linearGradient id="paint0_linear_97_1352" x1="48.8997" y1="30.6239" x2="71.9961" y2="30.6239" gradientUnits="userSpaceOnUse">
<stop stop-color="#16243F"/>
<stop offset="1" stop-color="#6878B1"/>
</linearGradient>
<linearGradient id="paint1_linear_97_1352" x1="66.3733" y1="105.439" x2="100.776" y2="50.3045" gradientUnits="userSpaceOnUse">
<stop stop-color="#16243F"/>
<stop offset="1" stop-color="#6878B1"/>
</linearGradient>
<linearGradient id="paint2_linear_97_1352" x1="52.0219" y1="64.9499" x2="69.0634" y2="41.6252" gradientUnits="userSpaceOnUse">
<stop stop-color="#16243F"/>
<stop offset="1" stop-color="#6878B1"/>
</linearGradient>
</defs>
</svg>
